<mxfile host="app.diagrams.net" modified="2024-02-24T00:05:28.588Z" agent="Mozilla/5.0 (Windows NT 10.0; Win64; x64) AppleWebKit/537.36 (KHTML, like Gecko) Chrome/121.0.0.0 Safari/537.36 OPR/107.0.0.0" version="23.1.6" etag="2I1BtZnh4u1mB37EhXhP" type="github">
  <diagram name="PÃ¡gina-1" id="dDShlnXIohOgnD16Njm2">
    <mxGraphModel>
      <root>
        <mxCell id="0" />
        <mxCell id="1" parent="0" />
      </root>
    </mxGraphModel>
  </diagram>
</mxfile>
